<?xml version="1.0" encoding="UTF-8" standalone="no"?>
<svg
   width="16"
   height="16"
   fill="currentColor"
   class="bi bi-display"
   viewBox="0 0 16 16"
   version="1.1"
   id="svg1"
   sodipodi:docname="display.svg"
   xmlns:inkscape="http://www.inkscape.org/namespaces/inkscape"
   xmlns:sodipodi="http://sodipodi.sourceforge.net/DTD/sodipodi-0.dtd"
   xmlns="http://www.w3.org/2000/svg"
   xmlns:svg="http://www.w3.org/2000/svg">
  <defs
     id="defs1" />
  <sodipodi:namedview
     id="namedview1"
     pagecolor="#ffffff"
     bordercolor="#000000"
     borderopacity="0.25"
     inkscape:showpageshadow="2"
     inkscape:pageopacity="0.0"
     inkscape:pagecheckerboard="0"
     inkscape:deskcolor="#d1d1d1">
    <inkscape:page
       x="0"
       y="0"
       width="16"
       height="16"
       id="page2"
       margin="0"
       bleed="0" />
  </sodipodi:namedview>
  <path
     d="M 0,4 C 0,4 0,2 2,2 h 12 c 0,0 2,0 2,2 v 6 c 0,0 0,2 -2,2 h -4 q 0,1 0.25,1.5 H 11 a 0.5,0.5 0 0 1 0,1 H 5 a 0.5,0.5 0 0 1 0,-1 H 5.75 Q 6,13 6,12 H 2 C 2,12 0,12 0,10 Z M 1.398,3.145 A 0.76,0.76 0 0 0 1.144,3.447 1.5,1.5 0 0 0 1,4.01 V 10 c 0,0.325 0.078,0.502 0.145,0.602 q 0.105,0.156 0.302,0.254 a 1.5,1.5 0 0 0 0.538,0.143 L 2.01,11 H 14 c 0.325,0 0.502,-0.078 0.602,-0.145 a 0.76,0.76 0 0 0 0.254,-0.302 1.5,1.5 0 0 0 0.143,-0.538 L 15,9.99 V 4 C 15,3.675 14.922,3.498 14.855,3.398 A 0.76,0.76 0 0 0 14.553,3.144 1.5,1.5 0 0 0 13.99,3 H 2 C 1.675,3 1.498,3.078 1.398,3.145"
     id="path1" />
  <path
     style="fill:#ffffff;stroke-width:0.0196319"
     d="M 4.8773259,14.471516 C 4.625249,14.403109 4.4650307,14.14019 4.5244598,13.892462 4.5572107,13.755941 4.6570821,13.630757 4.78351,13.567755 c 0.1014215,-0.05054 0.1082601,-0.05119 0.5381725,-0.05119 H 5.757128 l 0.040887,-0.09504 C 5.9038973,13.17539 5.9699212,12.820611 5.997077,12.351858 6.007819,12.166434 6.0167362,12.008098 6.0168929,12 6.0170497,11.9919 5.0818935,11.98528 3.9387679,11.98528 2.1604996,11.98528 1.83518,11.98098 1.6860072,11.95519 0.90211485,11.819899 0.34850727,11.389098 0.12490445,10.740382 0.00542656,10.393753 0.00831416,10.493274 0.01505362,6.954413 0.0211772,3.7389451 0.02130951,3.7295963 0.063076,3.5612731 0.17433981,3.1128684 0.33994478,2.8008751 0.60913706,2.5325153 0.80869864,2.3335709 0.9936791,2.2172861 1.2520773,2.1283421 1.610222,2.005064 1.1839982,2.0124294 7.9607362,2.0124116 c 6.7512318,-1.77e-5 6.3047418,-0.00743 6.6821808,0.110977 0.646257,0.2027442 1.071645,0.6092783 1.249795,1.1944028 0.09015,0.2961001 0.08766,0.1924133 0.08766,3.6417178 0,3.1181618 -0.0017,3.2763978 -0.03665,3.4355828 -0.180575,0.822286 -0.628425,1.325819 -1.357387,1.526157 l -0.196152,0.05391 -2.203681,0.0056 c -1.719108,0.0044 -2.2036422,0.0109 -2.2035054,0.0296 9.66e-5,0.01319 0.00894,0.16974 0.019657,0.347899 0.02786,0.463208 0.09479,0.820232 0.19933,1.063239 l 0.04089,0.09504 h 0.437058 0.437059 l 0.104342,0.05451 c 0.129606,0.06771 0.226985,0.197016 0.257145,0.341461 0.04278,0.204906 -0.07436,0.431783 -0.27362,0.529911 l -0.0932,0.0459 -3.0723942,0.0037 c -2.3901085,0.0029 -3.0922778,-0.0017 -3.1619379,-0.02056 z m 9.4620781,-3.498093 c 0.336923,-0.07942 0.530088,-0.300568 0.630007,-0.721281 0.03934,-0.165632 0.0398,-0.210508 0.03462,-3.3547949 l -0.0053,-3.1869177 -0.04426,-0.1276073 C 14.865528,3.3262858 14.694543,3.1716439 14.377467,3.0609331 l -0.16397,-0.057252 -6.1933519,-0.00509 c -3.7552925,-0.00309 -6.232195,0.00209 -6.2920245,0.013156 -0.3638125,0.067277 -0.5659275,0.2660649 -0.6904168,0.6790507 -0.033505,0.1111507 -0.035853,0.2959863 -0.0416492,3.2785277 -0.004278,2.2015179 2.9624e-4,3.1984265 0.0150739,3.2849305 0.066828,0.391191 0.269374,0.59424 0.7070676,0.708823 0.1442535,0.03776 0.255367,0.03845 6.3210677,0.03923 5.4427382,6.97e-4 6.1891502,-0.0027 6.3001402,-0.02889 z"
     id="path2" />
</svg>
